# xmcd
#
# Track frame offsets:
# 150
# 16636
# 26219
# 39383
# 52928
# 71586
# 85690
# 102122
# 121566
# 132441
# 149897
# 163516
# 180069
# 191173
# 216034
# 230739
# 246980
# 267494
# 286312
# 301243
#
# Disc length: 4257 seconds
#
#
# Revision: 0
# Processed by: cddbd v1.5.2PL0 Copyright (c) Steve Scherf et al.
# Submitted via: FreeRIP 2.945 
#
DISCID=15109f14
DTITLE=Various Artist - Westerbro LineDance - Let øvede 1
DYEAR=2008
DGENRE=Country
TTITLE0=Rodney Atkins - If you're going through hell
TTITLE1=George Straigt - The big one
TTITLE2=Black Pony - Black horse and the cherry tree
TTITLE3=Bellamy Brothers - Blue california
TTITLE4=Bellamy Brothers - Blue rodeo
TTITLE5=Jane McDonald - Blame it on the bossa nova
TTITLE6=Bellamy Brothers - Catahoula
TTITLE7=Bellamy Brothers - Almost Jamaica
TTITLE8=David Ball - Swing baby
TTITLE9=Ronan Hardimar - Coastin'
TTITLE10=Jerry Kilgore - I just want my baby back
TTITLE11=Dave Sheriff - Crussin
TTITLE12=Dwight Yoakam - DHSS
TTITLE13=Runrig - Dancing floor
TTITLE14=Michael Martin Murphy - End of enchantment
TTITLE15=Kenny Rogers - Someone most feel like a fool too night
TTITLE16=Shania Twain - I'm getcha good
TTITLE17=Shania Twain - Any of mine
TTITLE18=Brooks and Dunn - Husbands and Wife
TTITLE19=Dave Sheriff - Grundy gallop
EXTD=
EXTT0=
EXTT1=
EXTT2=
EXTT3=
EXTT4=
EXTT5=
EXTT6=
EXTT7=
EXTT8=
EXTT9=
EXTT10=
EXTT11=
EXTT12=
EXTT13=
EXTT14=
EXTT15=
EXTT16=
EXTT17=
EXTT18=
EXTT19=
PLAYORDER=
